<svg width="80" height="95" viewBox="0 0 80 95" fill="none" xmlns="http://www.w3.org/2000/svg">
<path d="M30.464 21.704C32.0853 21.704 33.7707 22.0027 35.52 22.6C37.2693 23.1973 38.8053 23.9653 40.128 24.904C39.7013 27.08 39.296 29.0427 38.912 30.792C38.5707 32.5413 38.2507 34.1413 37.952 35.592C37.6533 37 37.3547 38.3013 37.056 39.496C36.8 40.648 36.544 41.736 36.288 42.76C35.264 46.6 34.1973 50.0773 33.088 53.192C32.0213 56.264 30.8693 59.0373 29.632 61.512C28.4373 63.9867 27.1573 66.184 25.792 68.104C24.4693 70.024 23.04 71.7093 21.504 73.16C20.0107 74.568 18.5173 75.72 17.024 76.616C15.5307 77.512 14.144 78.088 12.864 78.344C11.1573 78.344 9.57867 78.152 8.128 77.768C6.67733 77.384 5.41867 76.8507 4.352 76.168C3.328 75.528 2.51733 74.7387 1.92 73.8C1.36533 72.904 1.088 71.9013 1.088 70.792C1.088 69.5973 1.38667 68.104 1.984 66.312C2.58133 64.4773 3.49867 62.3227 4.736 59.848C5.248 59.8907 5.84533 60.0187 6.528 60.232C7.21067 60.4453 7.89333 60.7013 8.576 61C9.25867 61.2987 9.87733 61.64 10.432 62.024C10.9867 62.3653 11.392 62.7067 11.648 63.048C10.2827 64.456 9.17333 66.0133 8.32 67.72C7.46667 69.384 7.04 70.8347 7.04 72.072C7.04 72.7973 7.168 73.4373 7.424 73.992C7.72267 74.5893 8.21333 75.1227 8.896 75.592C11.4987 74.6107 14.0373 72.776 16.512 70.088C18.9867 67.4427 21.184 64.136 23.104 60.168C24.256 57.8213 25.3013 55.1333 26.24 52.104C27.1787 49.0747 27.968 46.0453 28.608 43.016C29.2907 39.944 29.8027 37.0213 30.144 34.248C30.528 31.432 30.72 29.064 30.72 27.144C30.72 26.8453 30.6987 26.44 30.656 25.928C30.656 25.3733 30.6347 24.8187 30.592 24.264C30.592 23.6667 30.5707 23.1333 30.528 22.664C30.4853 22.1947 30.464 21.8747 30.464 21.704Z" fill="#0019FC"/>
<path d="M61.8411 40.7321C63.2012 40.6131 64.2973 40.9027 65.1293 41.6009C66.0038 42.2953 66.5006 43.3226 66.6196 44.6827C66.6493 45.0227 66.6597 45.3859 66.6507 45.7721C66.6379 46.1159 66.5789 46.4209 66.4737 46.687C65.9137 46.6504 65.2918 46.6405 64.6081 46.6575C63.9206 46.632 63.1093 46.6602 62.1742 46.742C60.2615 46.9093 58.3636 47.2467 56.4807 47.754C54.5978 48.2614 52.7942 48.6976 51.0702 49.0626C49.5516 53.7354 48.349 58.1022 47.4622 62.1629C46.5754 66.2236 45.9612 70.2177 45.6195 74.1451C44.1446 73.9315 42.8156 73.4267 41.6323 72.6308C40.4491 71.8349 39.2981 70.6722 38.1792 69.1425C38.4172 68.4364 38.7078 67.5972 39.0511 66.6249C39.3906 65.6102 39.7947 64.3542 40.2633 62.857C40.7282 61.3172 41.2733 59.4707 41.8987 57.3173C42.5629 55.1178 43.3404 52.5014 44.2315 49.4682C42.3942 49.0293 41.1343 48.0902 40.4516 46.6509C40.6455 46.4198 41.2201 46.1339 42.1754 45.7934C43.1269 45.4103 44.2892 44.9874 45.6621 44.5247C46.1546 42.8112 46.5789 41.2965 46.9349 39.9804C47.2871 38.6219 47.6043 37.3521 47.8865 36.171C48.1649 34.9474 48.4045 33.7701 48.6054 32.6389C48.845 31.4615 49.0365 30.2241 49.18 28.9267L48.8612 28.9546C47.2461 29.0959 45.895 28.8286 44.8079 28.1528C43.7634 27.4733 43.1872 26.5172 43.0794 25.2845C43.0496 24.9445 43.0568 24.537 43.1009 24.062C43.1875 23.5833 43.3009 23.1665 43.4412 22.8116C44.2599 22.8685 45.0537 22.8847 45.8225 22.8602C46.6338 22.8321 47.677 22.7622 48.9521 22.6507C51.6299 22.4164 54.1321 22.1332 56.4587 21.8012C58.7815 21.4267 60.8706 21.0726 62.7259 20.7389C64.6238 20.4016 66.2472 20.1096 67.5961 19.8631C68.9414 19.5741 69.9753 19.398 70.6979 19.3348C71.6755 19.2493 72.5915 19.6831 73.4458 20.6362C74.3001 21.5894 75.0216 22.9825 75.6103 24.8155C74.239 24.807 73.1264 24.8187 72.2726 24.8505C71.4613 24.8787 70.7369 24.9206 70.0993 24.9764C67.9316 25.1661 65.9432 25.4471 64.1341 25.8195C62.3638 26.1457 60.6822 26.507 59.0894 26.9033C58.8678 27.3082 58.613 27.823 58.3251 28.4478C58.0796 29.0689 57.7502 29.9543 57.3368 31.1041C56.9197 32.2113 56.3836 33.6716 55.7285 35.4849C55.1159 37.2945 54.3317 39.5903 53.3758 42.3722C55.0112 41.9721 56.5652 41.622 58.038 41.3218C59.5533 41.018 60.821 40.8214 61.8411 40.7321Z" fill="#FBD757"/>
</svg>
